<svg width="1440" height="1641" viewBox="0 0 1440 1641" fill="none" xmlns="http://www.w3.org/2000/svg">
<path d="M-152.46 1112.73C19.8939 1556.46 493.611 1258.45 881.602 1519.27C1269.59 1780.1 1659.18 1599.04 1787.78 1178.26C1916.39 757.483 1891.18 403.828 1442.75 101.7C994.324 -200.429 821.953 276.359 320.528 237.938C-180.897 199.517 -324.814 668.987 -152.46 1112.73Z" fill="url(#paint0_linear_61_56)"/>
<path d="M-152.46 1112.73C19.8939 1556.46 493.611 1258.45 881.602 1519.27C1269.59 1780.1 1659.18 1599.04 1787.78 1178.26C1916.39 757.483 1891.18 403.828 1442.75 101.7C994.324 -200.429 821.953 276.359 320.528 237.938C-180.897 199.517 -324.814 668.987 -152.46 1112.73Z" fill="white" fill-opacity="0.6"/>
<defs>
<linearGradient id="paint0_linear_61_56" x1="-108.5" y1="785.5" x2="1400.52" y2="1088.58" gradientUnits="userSpaceOnUse">
<stop offset="0.1177" stop-color="#92C8FA"/>
<stop offset="0.826872" stop-color="#95A8E9"/>
</linearGradient>
</defs>
</svg>
